<svg width="70" height="70" viewBox="0 0 70 70" fill="none" xmlns="http://www.w3.org/2000/svg">
<path d="M16.2883 22.4362H38.9408C39.3576 22.4362 39.6958 21.6647 39.6958 20.7103C39.6958 19.7559 39.3576 18.9844 38.9408 18.9844H16.2883C15.8715 18.9844 15.5332 19.7559 15.5332 20.7103C15.5332 21.6647 15.8707 22.4362 16.2883 22.4362Z" fill="#FA625B"/>
<path d="M28.4233 50.0514H52.6938C53.1404 50.0514 53.5028 49.2799 53.5028 48.3255C53.5028 47.3711 53.1404 46.5996 52.6938 46.5996H28.4233C27.9767 46.5996 27.6143 47.3711 27.6143 48.3255C27.6143 49.2799 27.9759 50.0514 28.4233 50.0514Z" fill="#FA625B"/>
<path d="M16.7198 36.2438H52.3165C52.9715 36.2438 53.5031 35.4723 53.5031 34.5179C53.5031 33.5635 52.9715 32.792 52.3165 32.792H16.7198C16.0648 32.792 15.5332 33.5635 15.5332 34.5179C15.5332 35.4723 16.0636 36.2438 16.7198 36.2438Z" fill="#FA625B"/>
</svg>
