<svg width="284" height="284" viewBox="0 0 284 284" fill="none" xmlns="http://www.w3.org/2000/svg">
<path d="M71.4133 203.617C71.4133 205.769 70.8472 208.222 70.2428 209.617L68.3941 209.505C68.5062 208.145 68.4708 206.373 68.4708 205.504V189.429C68.4708 188.562 68.4708 187.807 68.3175 187.126C68.1288 186.221 67.5273 185.543 66.8462 185.089C66.4688 184.826 67.3003 183.163 67.828 183.39C69.5646 184.145 70.7705 185.277 71.1096 186.298C71.2983 186.864 71.4133 187.43 71.4133 189.128V194.863C72.9966 194.824 74.7332 194.712 76.0924 194.485V185.655C76.0924 184.788 76.0924 184.033 75.9421 183.352C75.7534 182.447 75.1489 181.769 74.4708 181.315C74.0934 181.052 74.9986 179.392 75.5263 179.616C77.263 180.371 78.4689 181.503 78.8079 182.524C78.9966 183.09 79.1116 183.656 79.1116 185.354V208.938C79.1116 211.091 78.4689 213.541 77.8644 214.939L76.0158 214.826C76.1308 213.467 76.0924 211.692 76.0924 210.825V196.788C74.6949 196.977 72.6959 197.089 71.4133 197.165V203.617ZM52.281 194.409C52.1306 193.279 51.4879 191.805 50.5444 190.977C50.282 190.75 51.3375 189.617 51.6766 189.806C53.1125 190.599 54.0176 191.428 54.5071 192.183C54.8461 192.713 55.1852 193.391 55.2619 194.223L55.9046 200.485L61.1852 200.07C61.4889 198.336 61.7513 194.034 61.716 193.014C61.6776 192.486 61.5273 192.147 60.8845 192.259C59.9027 192.41 59.6019 192.486 58.5081 192.598C57.7916 192.675 56.3174 192.109 55.4506 191.581C55.1852 191.428 55.4122 190.145 55.7159 190.184C56.6594 190.296 57.6383 190.484 58.5818 190.411L62.5828 190.033C64.169 189.918 64.9592 190.411 64.9592 191.316C64.9592 192.787 64.169 198.032 63.6383 200.297L64.6968 200.939L64.2044 202.184L56.0933 202.599L55.6393 204.109L53.6019 203.805L52.281 194.409Z" fill="#7D3200"/>
<path d="M97.0795 186.902C94.3257 186.976 93.1935 188.674 93.1935 190.862C93.1935 192.976 94.591 194.901 97.2682 194.901C100.025 194.901 101.381 193.091 101.381 190.826C101.381 189.278 101.346 188.335 100.287 187.542C99.8717 187.203 100.591 185.77 101.042 185.92C102.817 186.486 104.477 188.297 104.477 190.788C104.477 194.223 101.835 197.204 97.3065 197.204C92.7778 197.204 90.0977 194.223 90.0977 190.862C90.0977 187.618 92.6657 184.938 95.9856 184.826C96.0977 184.523 96.0623 184.107 95.9473 183.806C95.797 183.39 95.4579 182.901 94.8151 182.373C94.6648 182.223 95.1571 181.43 95.4196 181.503C96.7021 181.881 98.4771 183.128 98.4771 184.523V185.354C98.4771 186.864 97.4569 186.902 97.0795 186.902ZM102.401 211.919C102.401 212.447 102.628 212.562 103.118 212.562C104.25 212.524 110.816 212.185 112.665 212.22C113.308 212.22 114.286 212.258 114.817 212.485C115.195 212.636 114.779 214.523 114.251 214.523C113.647 214.523 112.476 214.484 111.872 214.523L101.797 214.862C100.06 214.9 99.4206 214.033 99.4206 213.279V209.844C99.4206 208.788 99.0815 208.411 98.7395 208.107C98.0997 207.541 98.2884 206.07 99.3439 206.185C99.8717 206.22 100.665 206.373 101.346 206.335L110.4 206.108L110.551 203.165C110.589 202.673 110.327 202.484 109.873 202.484C107.308 202.523 104.061 202.938 101.496 202.9C100.553 202.9 99.0048 202.449 98.25 202.033C97.9847 201.918 98.3621 200.185 98.7395 200.223L101.381 200.562C103.118 200.751 104.816 200.562 106.854 200.409C108.325 200.297 110.589 200.108 111.91 200.07C112.742 200.034 113.909 200.751 113.759 201.73L113.119 206.335C113.346 206.562 113.759 206.863 113.986 207.013L113.532 208.26L102.401 208.523V211.919ZM114.286 192.56C114.286 194.712 113.57 197.165 112.969 198.56L111.117 198.448C111.232 197.089 111.194 195.317 111.194 194.447V185.655C111.194 184.788 111.194 184.033 111.043 183.352C110.855 182.447 110.327 181.769 109.646 181.315C109.268 181.052 110.173 179.392 110.704 179.616C112.438 180.371 113.647 181.503 113.986 182.524C114.174 183.09 114.286 183.656 114.286 185.354V192.56Z" fill="#7D3200"/>
<path d="M133.948 209.582C133.005 209.656 132.061 209.771 131.194 209.883C130.251 209.995 129.343 210.148 128.437 210.222C127.683 210.26 124.891 209.617 124.401 209.505C123.947 209.393 124.439 207.468 124.852 207.506C125.949 207.618 127.005 207.695 128.06 207.695C129.57 207.73 131.607 207.618 134.137 207.43C139.117 207.052 144.173 206.713 154.852 206.598C155.645 206.598 157.798 206.787 159.08 207.769L158.553 209.393C157.193 209.128 155.23 208.939 154.44 208.901C152.741 208.827 151.078 208.789 149.345 208.789C144.627 208.789 139.683 209.09 133.948 209.582ZM145.232 202.184C146.777 196.562 147.307 190.939 147.307 188.825C147.307 188.336 147.119 188.07 146.588 188.07C143.76 188.07 139.948 188.864 136.628 188.976C135.381 189.014 133.005 188.448 131.872 188.07C131.533 187.958 131.834 185.959 132.438 186.033C133.456 186.183 135.042 186.487 136.852 186.41C140.476 186.26 145.609 185.393 148.401 185.732C149.041 185.806 149.834 186.033 150.099 186.637C150.25 186.977 150.324 188.07 150.324 188.486C150.324 191.051 149.345 198.148 147.531 202.639L145.232 202.184Z" fill="#7D3200"/>
<path d="M182.357 203.617C182.357 205.769 181.791 208.222 181.187 209.617L179.338 209.505C179.45 208.145 179.415 206.373 179.415 205.504V200.597C176.168 202.411 170.62 204.259 165.678 204.298C165.224 204.298 164.885 204.147 164.885 203.543V196.862C164.885 195.694 164.885 194.901 164.735 193.279C164.658 192.448 164.357 191.77 163.148 191.204C162.886 191.089 163.187 189.656 163.49 189.694C164.207 189.768 165.528 189.957 166.206 189.957C169.98 189.845 173.45 189.317 174.96 189.051L176.092 190.296C176.319 190.599 175.414 191.127 175.113 191.204C173.677 191.504 170.847 191.959 167.488 191.959C167.188 191.959 167.073 192.071 167.261 192.259C167.527 192.486 167.866 192.864 167.866 193.353V201.24C167.866 201.656 168.016 201.73 168.32 201.73C170.735 201.73 176.245 200.297 179.415 198.525V189.429C179.415 188.562 179.415 187.807 179.261 187.126C179.073 186.221 178.471 185.543 177.79 185.089C177.413 184.826 178.244 183.163 178.772 183.39C180.509 184.145 181.714 185.277 182.056 186.298C182.242 186.864 182.357 187.43 182.357 189.128V196.26C183.941 196.222 185.677 196.107 187.036 195.883V185.655C187.036 184.788 187.036 184.033 186.886 183.352C186.697 182.447 186.093 181.769 185.415 181.315C185.037 181.052 185.943 179.392 186.47 179.616C188.207 180.371 189.413 181.503 189.752 182.524C189.941 183.09 190.056 183.656 190.056 185.354V208.938C190.056 211.091 189.413 213.541 188.808 214.939L186.96 214.826C187.075 213.467 187.036 211.692 187.036 210.825V198.183C185.639 198.371 183.64 198.486 182.357 198.56V203.617Z" fill="#7D3200"/>
<path d="M224.51 200.373C225.869 200.223 227.417 200.108 228.322 200.034C229.039 199.996 230.775 200.447 231.869 200.901L231.492 202.673C230.171 202.523 228.549 202.26 228.095 202.296L224.51 202.599V208.938C224.51 211.091 223.794 213.541 223.189 214.939L221.341 214.826C221.456 213.467 221.417 211.692 221.417 210.825V202.561C216.473 204.336 206.926 205.846 204.623 206.034C203.794 206.108 203.379 206.108 202.17 206.07C201.757 206.07 199.793 205.731 198.927 205.392C198.7 205.315 199 203.428 199.342 203.466L202.135 203.77C203.529 203.882 206.059 203.655 208.889 203.239V202.222C208.889 201.163 208.435 200.674 207.831 199.996C207.453 199.542 208.774 198.336 209.267 198.598C209.868 198.902 211.304 200.185 211.72 200.901C211.832 201.09 211.832 201.883 211.755 202.788C215.68 202.107 219.604 201.24 221.417 200.712V185.655C221.417 184.788 221.417 184.033 221.267 183.352C221.078 182.447 220.547 181.769 219.869 181.315C219.492 181.052 220.397 179.392 220.925 179.616C222.661 180.371 223.87 181.503 224.209 182.524C224.398 183.09 224.51 183.656 224.51 185.354V200.373ZM209.001 188.07C207.002 188.07 205.755 189.39 205.755 191.77C205.755 194.597 207.53 195.806 209.68 195.806C211.682 195.806 213.454 194.597 213.454 191.805C213.454 190.222 213.38 189.845 212.625 188.863C212.286 188.447 212.964 187.164 213.415 187.353C215.417 188.185 216.434 189.694 216.434 191.732C216.434 194.863 214.247 198.032 209.718 198.032C205.189 198.032 202.774 195.128 202.774 191.77C202.774 189.39 204.322 186.336 208.247 186.032C208.323 185.239 208.285 184.411 207.114 183.617C206.926 183.505 207.453 182.674 207.719 182.751C209.001 183.128 210.7 184.372 210.7 186.032V186.56C210.7 188.07 209.868 188.07 209.001 188.07Z" fill="#7D3200"/>
<path d="M143.875 158.224C143.421 158.224 142.967 158.197 142.516 158.15C135.917 157.443 128.49 151.572 119.813 140.206C113.512 131.951 107.034 121.283 102.485 111.674C98.3189 102.867 96.1901 95.0276 96.1577 88.3701C96.1046 78.2954 100.869 73.2241 104.876 70.7415C110.584 67.2064 117.472 67.4452 124.265 71.4197C130.206 74.8929 135.994 81.0227 141.475 89.6409C153.148 108.018 160.115 107.629 165.201 107.346C169.146 107.119 177.793 102.965 177.793 92.0203C177.793 87.6124 176.467 83.9888 173.963 81.5386C172.802 80.4241 171.469 79.5779 169.968 78.9971C168.465 78.4163 166.908 78.1479 165.298 78.1922C159.109 78.3366 153.708 83.7264 153.655 83.7824C153.425 84.0182 153.174 84.2276 152.906 84.4163C152.635 84.602 152.349 84.7612 152.045 84.891C151.744 85.0207 151.432 85.121 151.11 85.1888C150.789 85.2566 150.465 85.2949 150.137 85.2979C149.807 85.3038 149.483 85.2772 149.158 85.2183C148.834 85.1563 148.522 85.0679 148.215 84.947C147.911 84.8232 147.619 84.6757 147.345 84.4959C147.068 84.316 146.811 84.1126 146.576 83.8856C146.34 83.6556 146.13 83.405 145.942 83.1367C145.756 82.8654 145.597 82.5794 145.467 82.2757C145.337 81.975 145.237 81.6625 145.169 81.3411C145.101 81.0197 145.063 80.6954 145.06 80.3681C145.054 80.0379 145.081 79.7136 145.14 79.3892C145.202 79.0649 145.29 78.7524 145.411 78.4457C145.535 78.142 145.682 77.8502 145.862 77.576C146.042 77.2988 146.245 77.0423 146.472 76.8064C146.803 76.4644 154.725 68.43 165.062 68.1823C166.525 68.144 167.975 68.2531 169.417 68.5037C170.859 68.7543 172.262 69.1464 173.624 69.6771C174.99 70.2079 176.287 70.8654 177.519 71.6555C178.752 72.4428 179.896 73.345 180.948 74.3592C184.074 77.4108 187.797 82.945 187.797 92.0026C187.797 101.146 183.755 107.081 180.362 110.448C176.31 114.47 170.853 117.041 165.749 117.324C157.084 117.804 146.694 116.519 133.019 94.9893C124.737 81.9485 115.756 75.7686 110.148 79.2418C104.375 82.8182 104.894 93.3382 111.537 107.384C115.738 116.268 121.953 126.517 127.771 134.127C135.354 144.063 140.906 147.908 143.583 148.194C145.594 148.406 149.739 145.988 155.344 138.546C158.172 134.734 160.699 130.733 162.928 126.543C163.078 126.251 163.255 125.977 163.458 125.721C163.665 125.464 163.892 125.228 164.142 125.016C164.393 124.804 164.661 124.618 164.947 124.459C165.236 124.3 165.537 124.17 165.849 124.07C166.162 123.969 166.48 123.901 166.808 123.863C167.132 123.828 167.459 123.822 167.787 123.848C168.114 123.875 168.435 123.934 168.754 124.025C169.069 124.114 169.373 124.235 169.665 124.385C169.957 124.535 170.231 124.712 170.487 124.916C170.747 125.122 170.98 125.349 171.192 125.6C171.404 125.85 171.59 126.119 171.752 126.405C171.911 126.691 172.041 126.991 172.141 127.304C172.242 127.617 172.309 127.938 172.348 128.262C172.386 128.589 172.392 128.917 172.365 129.244C172.339 129.571 172.28 129.893 172.189 130.208C172.1 130.524 171.979 130.827 171.829 131.122C169.364 135.778 166.563 140.221 163.423 144.452C156.479 153.707 150.069 158.224 143.875 158.224Z" fill="#FA625B"/>
</svg>
