<svg width="70" height="70" viewBox="0 0 70 70" fill="none" xmlns="http://www.w3.org/2000/svg">
  <path d="M35.2323 51.4774C35.061 51.4769 34.8907 51.4683 34.7204 51.45C32.235 51.1831 29.4375 48.9722 26.1694 44.6906C23.7963 41.582 21.3561 37.5636 19.6427 33.9443C18.0732 30.6268 17.2717 27.6743 17.259 25.1665C17.2391 21.3713 19.0338 19.4607 20.5434 18.526C22.6933 17.1944 25.287 17.2848 27.8461 18.7817C30.084 20.0899 32.264 22.399 34.3281 25.6443C38.7256 32.5664 41.3493 32.4205 43.2659 32.3143C44.7516 32.2289 48.0091 30.6639 48.0091 26.5414C48.0091 24.8809 47.5089 23.5157 46.5656 22.5937C46.3491 22.3858 46.1143 22.2008 45.8606 22.0397C45.6075 21.8785 45.3407 21.7438 45.0606 21.6356C44.7806 21.5273 44.4924 21.4475 44.1966 21.3962C43.9008 21.3454 43.6024 21.324 43.3025 21.3322C40.9706 21.3876 38.9365 23.4176 38.9162 23.4379C38.8298 23.5268 38.7358 23.6061 38.6336 23.6763C38.5319 23.7469 38.4242 23.8064 38.3103 23.8552C38.1965 23.9045 38.0796 23.9421 37.9581 23.968C37.8371 23.9939 37.7146 24.0077 37.5911 24.0092C37.4671 24.0112 37.3446 24.0011 37.2226 23.9787C37.1012 23.9563 36.9827 23.9223 36.8679 23.8765C36.7525 23.8308 36.6432 23.7744 36.539 23.7068C36.4353 23.6397 36.3388 23.5629 36.2503 23.4765C36.1614 23.3906 36.0821 23.2961 36.0114 23.1944C35.9413 23.0923 35.8818 22.9845 35.8325 22.8712C35.7837 22.7573 35.7461 22.6399 35.7202 22.519C35.6943 22.398 35.6806 22.2755 35.6785 22.152C35.677 22.028 35.6872 21.9055 35.7095 21.7835C35.7319 21.662 35.766 21.5436 35.8117 21.4282C35.8574 21.3133 35.9139 21.2041 35.9809 21.0999C36.0485 20.9962 36.1253 20.8996 36.2112 20.8107C36.3357 20.6821 39.3192 17.6554 43.2131 17.5623C43.764 17.5481 44.3109 17.5888 44.8538 17.6833C45.3966 17.7778 45.9247 17.9252 46.4385 18.125C46.9519 18.3247 47.4408 18.5728 47.9054 18.8701C48.3694 19.1669 48.7999 19.5065 49.1969 19.8887C50.374 21.0379 51.7769 23.1233 51.7769 26.5348C51.7769 29.9788 50.2536 32.2136 48.9758 33.4818C47.4495 34.9974 45.394 35.9657 43.4723 36.0719C40.2082 36.2528 36.294 35.7684 31.1433 27.6591C28.0235 22.7477 24.6415 20.4193 22.5292 21.7276C20.3538 23.0745 20.5495 27.0369 23.0517 32.328C24.6349 35.6744 26.975 39.5347 29.1671 42.4013C32.0236 46.1432 34.1141 47.5912 35.123 47.7C35.8803 47.7798 37.4412 46.869 39.553 44.0654C40.6179 42.63 41.5698 41.123 42.4085 39.5449C42.4654 39.4351 42.532 39.3319 42.6093 39.2348C42.686 39.1383 42.7719 39.0498 42.8664 38.9695C42.9605 38.8897 43.0621 38.8201 43.1704 38.7596C43.2786 38.6996 43.3915 38.6508 43.5094 38.6132C43.6268 38.5756 43.7473 38.5497 43.8703 38.5354C43.9933 38.5212 44.1163 38.5197 44.2398 38.5299C44.3628 38.54 44.4842 38.5619 44.6032 38.5959C44.7221 38.63 44.8365 38.6752 44.9463 38.7316C45.0566 38.7886 45.1597 38.8551 45.2568 38.9319C45.3539 39.0092 45.4423 39.0945 45.5221 39.1891C45.6024 39.2831 45.6726 39.3843 45.7325 39.4925C45.7925 39.6008 45.8418 39.7136 45.8794 39.8315C45.9176 39.9494 45.9435 40.0694 45.9577 40.1924C45.9719 40.3154 45.974 40.4384 45.9638 40.5619C45.9536 40.6849 45.9318 40.8064 45.8977 40.9253C45.8637 41.0442 45.819 41.1586 45.762 41.2689C44.8334 43.0229 43.7778 44.6967 42.5955 46.2906C39.9805 49.7758 37.5657 51.4774 35.2323 51.4774Z" fill="#FA625B" />
</svg>
