<svg width="60" height="60" viewBox="0 0 60 60" fill="none" xmlns="http://www.w3.org/2000/svg">
<path d="M31.2419 59.4782C30.9441 59.4773 30.6482 59.4623 30.3522 59.4305C26.032 58.9667 21.1693 55.1235 15.4886 47.6811C11.3636 42.2778 7.12201 35.293 4.1438 29.0017C1.41562 23.2352 0.02237 18.1031 0.0002829 13.744C-0.0341726 7.14709 3.08539 3.82609 5.70933 2.20137C9.44644 -0.113341 13.9548 0.0439186 18.4032 2.64576C22.2931 4.91984 26.0824 8.93349 29.6702 14.5745C37.314 26.6066 41.8745 26.353 45.2061 26.1684C47.7886 26.02 53.4508 23.2997 53.4508 16.1338C53.4508 13.2475 52.5814 10.8745 50.9417 9.27186C50.5653 8.91052 50.1572 8.58893 49.7163 8.30887C49.2763 8.0288 48.8125 7.79468 48.3257 7.6065C47.8389 7.41832 47.338 7.27961 46.8238 7.19038C46.3096 7.10203 45.791 7.06493 45.2698 7.07906C41.2164 7.17536 37.6807 10.704 37.6453 10.7393C37.4951 10.8939 37.3317 11.0317 37.1541 11.1537C36.9774 11.2765 36.7901 11.3798 36.5922 11.4647C36.3943 11.5504 36.1911 11.6157 35.98 11.6608C35.7697 11.7058 35.5568 11.7297 35.3421 11.7323C35.1265 11.7359 34.9136 11.7182 34.7016 11.6793C34.4904 11.6405 34.2846 11.5813 34.0849 11.5018C33.8844 11.4222 33.6944 11.3242 33.5133 11.2067C33.3331 11.0901 33.1652 10.9567 33.0115 10.8065C32.8569 10.6572 32.719 10.4928 32.5962 10.3161C32.4743 10.1386 32.371 9.95125 32.2853 9.75424C32.2004 9.55634 32.1351 9.35226 32.09 9.14199C32.045 8.93172 32.0211 8.7188 32.0176 8.50412C32.0149 8.28855 32.0326 8.07563 32.0715 7.86359C32.1103 7.65244 32.1695 7.44659 32.249 7.24604C32.3286 7.04637 32.4266 6.85643 32.5432 6.67531C32.6607 6.49508 32.7941 6.32722 32.9435 6.17261C33.1599 5.94909 38.3459 0.687975 45.1143 0.526298C46.072 0.501561 47.0226 0.572239 47.9661 0.736566C48.9097 0.900893 49.8276 1.1571 50.7208 1.50431C51.6131 1.85152 52.463 2.28265 53.2705 2.79949C54.0772 3.31544 54.8255 3.90561 55.5155 4.56998C57.5616 6.56753 60 10.1924 60 16.1224C60 22.1088 57.3522 25.9935 55.1311 28.1977C52.4781 30.8323 48.9053 32.5153 45.5648 32.7C39.8911 33.0145 33.0875 32.1725 24.1343 18.0766C18.7115 9.53955 12.8328 5.49234 9.16108 7.76641C5.37979 10.1076 5.71993 16.9952 10.0693 26.1923C12.8213 32.0091 16.8889 38.7191 20.6993 43.7019C25.6645 50.2061 29.2982 52.7231 31.0519 52.9122C32.3683 53.0509 35.0815 51.4677 38.7523 46.5944C40.6032 44.0995 42.258 41.48 43.7157 38.7368C43.8147 38.5459 43.9304 38.3666 44.0647 38.1978C44.1981 38.03 44.3474 37.8763 44.5117 37.7367C44.6752 37.598 44.8519 37.4769 45.04 37.3718C45.2282 37.2675 45.4244 37.1827 45.6293 37.1174C45.8334 37.052 46.0428 37.0069 46.2566 36.9822C46.4704 36.9574 46.6842 36.9548 46.8989 36.9725C47.1127 36.9901 47.3238 37.0281 47.5306 37.0873C47.7373 37.1465 47.9361 37.2251 48.1269 37.3232C48.3186 37.4222 48.498 37.5379 48.6667 37.6713C48.8355 37.8056 48.9892 37.954 49.1279 38.1183C49.2675 38.2818 49.3894 38.4576 49.4937 38.6458C49.5979 38.834 49.6836 39.0301 49.749 39.2351C49.8153 39.44 49.8603 39.6485 49.885 39.8623C49.9098 40.0761 49.9133 40.2899 49.8957 40.5046C49.878 40.7184 49.84 40.9296 49.7808 41.1363C49.7216 41.343 49.6439 41.5418 49.5449 41.7335C47.9308 44.7824 46.0958 47.6917 44.0408 50.4623C39.4953 56.5203 35.2979 59.4782 31.2419 59.4782Z" fill="#FA625B"/>
</svg>
