<svg width="40" height="40" viewBox="0 0 40 40" fill="none" xmlns="http://www.w3.org/2000/svg">
<path d="M9.4375 13H22.5625C22.804 13 23 12.553 23 12C23 11.447 22.804 11 22.5625 11H9.4375C9.196 11 9 11.447 9 12C9 12.553 9.19556 13 9.4375 13Z" fill="#FA625B"/>
<path d="M16.4688 29H30.5312C30.79 29 31 28.553 31 28C31 27.447 30.79 27 30.5312 27H16.4688C16.21 27 16 27.447 16 28C16 28.553 16.2095 29 16.4688 29Z" fill="#FA625B"/>
<path d="M9.6875 21H30.3125C30.692 21 31 20.553 31 20C31 19.447 30.692 19 30.3125 19H9.6875C9.308 19 9 19.447 9 20C9 20.553 9.30731 21 9.6875 21Z" fill="#FA625B"/>
</svg>
