<svg width="60" height="50" viewBox="0 0 60 50" fill="none" xmlns="http://www.w3.org/2000/svg">
<path d="M1.19318 5.90865H36.9886C37.6473 5.90865 38.1818 4.68956 38.1818 3.18137C38.1818 1.67319 37.6473 0.454102 36.9886 0.454102H1.19318C0.534545 0.454102 0 1.67319 0 3.18137C0 4.68956 0.533352 5.90865 1.19318 5.90865Z" fill="#FA625B"/>
<path d="M20.3692 49.5454H58.7215C59.4272 49.5454 59.9999 48.3263 59.9999 46.8181C59.9999 45.3099 59.4272 44.0908 58.7215 44.0908H20.3692C19.6635 44.0908 19.0908 45.3099 19.0908 46.8181C19.0908 48.3263 19.6623 49.5454 20.3692 49.5454Z" fill="#FA625B"/>
<path d="M1.875 27.727H58.125C59.16 27.727 60 26.5079 60 24.9997C60 23.4916 59.16 22.2725 58.125 22.2725H1.875C0.84 22.2725 0 23.4916 0 24.9997C0 26.5079 0.838125 27.727 1.875 27.727Z" fill="#FA625B"/>
</svg>
